<svg id="logo-main-box" xmlns="http://www.w3.org/2000/svg" viewBox="0 0 2688.47 2288.19">
  <defs>
    <style>
      .dark-outlines,
      .podtext-text-letter {
        fill: #121f4c;
      }

      .left-blob-background {
        fill: #3d9ce0;
      }

      .right-blob-background {
        fill: #3a9be0;
      }

      .mic-outline,
      .blob-outline,
      .blob-text-lines {
        fill: #fdfdfd;
      }

      .mic-inner {
        fill: #fcc847;
      }

    </style>
  </defs>
  <g id="logo-wrapper">
    <path id="dark-outlines" class="dark-outlines" d="M1857.38,1305.63l-464.04,0.24c-74.31,2.34,-144.96,-17.94,-206.37,-58.53c-43.13,-28.82,-78.64,-65.53,-106.97,-109.48l-286.42,-0.14l-379.23,376.97l-0.05,-376.75l-56.28,-0.32c-102.2,-5.96,-196.22,-54.2,-259.61,-135.07C50.56,941.49,20.09,865.91,20.07,786.98L20,376.97C19.97,191.7,172.11,26.91,360.64,20l930.15,0.14c114.25,7.18,218.03,69.71,279.13,167.48l715.52,0.36c57.25,0.03,109.38,17.77,159.56,43.8c107.81,62.13,182.19,175.82,184.89,302.67l0.4,422.1c0.17,183.22,-162.23,348.74,-352.29,349.55l-41.48,0.18l0.08,365.13l0.12,6.48c0.03,1.69,-0.89,3.5,-1.8,3.68c-0.8,0.16,-1.49,-1.08,-3.06,-2.65l-374.47,-373.29Z"/>
    <g id="logo-inner">
      <g id="right-blob-wrapper">
        <path id="mic-inner" class="mic-inner" d="M1136.89,792.2l0.24,68.12l4.01,1.33l63.65,0.22c21.86,0.08,38.36,18.14,39.99,38.6c1.7,21.22,-13.72,43.57,-36.25,43.8l-67.25,0.69l-3.94,2.82c-2.72,35.72,10.12,71.48,49.75,76.87l103.65,-0.16c64.38,-8.71,113.23,-30.81,157.28,-79.91c0.71,-0.79,0.95,-2.03,1.17,-3.39c0.23,-1.39,0.2,-2.82,0.09,-4.26c-13.77,-10.74,-20.45,-27.53,-15.23,-45.46c4.34,-14.91,18.07,-29.1,35.88,-29.42l25.03,-0.45c1.33,-0.68,2.62,-1.41,3.73,-2.35c8.87,-7.46,13.27,-48.56,14.55,-61.82l0.38,-5.84l-34.41,0.91c-23.73,0.63,-43.39,-14.05,-46.42,-36.85c-2.94,-22.14,12.6,-44.59,36.13,-46.76l41.72,-0.39l3.94,-3.02c1.41,-14.24,0.43,-50.4,-1.44,-64.79c-0.16,-1.25,-2.48,-1.86,-4.05,-2.25l-41.13,-0.74c-20.55,-2.81,-34.61,-20.88,-35.37,-39.87c-0.81,-20.34,13.45,-39.76,34.6,-42.49l43.51,-0.68c3.87,-1.74,5.1,-5.69,3.71,-11.86c0.85,-15.72,0.1,-40.1,-1.39,-55.93c-0.11,-1.22,-2.48,-1.86,-4.06,-2.24l-39.7,-0.27c-23.89,-0.16,-39.35,-23.81,-36.4,-46.28c2.97,-22.64,22.24,-38.51,46.2,-36.53l29.89,-0.22l4.04,-2.75c4.59,-61.27,-3.57,-91.77,-71.49,-98.54c-49.7,-4.95,-116.27,1.06,-161.21,22.73c-30,14.47,-69.41,42.06,-87.45,70.17c-2.59,4.04,-3.72,7.63,1.9,8.19c24.4,-0.08,45.95,10.72,49.98,35.25c3.79,23.05,-12.81,47.93,-37.76,48.05l-57.9,0.27l-4.52,1.96c-5.83,17.78,-9.53,47.76,-7.38,66.03c0.13,1.11,2.45,1.58,4,1.77l65.86,0.38c22.31,0.13,37.5,19.99,38.01,41.11c0.49,20.15,-14.62,41.5,-36.63,41.77l-67.22,0.8c-1.79,0.41,-3,1.45,-4.01,2.92c-1.83,2.67,-0.54,56.96,-0.06,64.66c0.07,1.21,2.43,1.92,4,2.34l65.89,0.39c23.84,0.14,39.77,22.79,37.78,44.89c-2.09,23.17,-20.91,38.92,-44.81,38.55l-58.92,-1"/>
        <g id="mic-outline-group">
          <path id="mic-outline-part" class="mic-outline" d="M1508.95,401.33l0.56,-40.58c0.49,-41.67,-36.04,-56.6,-76.39,-57l-25.81,-0.26l-22.21,0.41c-27.99,0.51,-53.69,3.24,-80.06,12.84c-41.94,15.27,-78.82,40.57,-106.52,75.42c-2.53,3.18,-4.48,4.98,-3.78,8.97l-49.6,0.17c47.84,-79.87,133.58,-132.18,227.63,-135.12l72.31,0.22c50.93,0.16,100.74,35.09,101.6,82.6l0.94,52.34l-38.67,-0.02Z"/>
          <path id="mic-outline-part-2" class="mic-outline" d="M1141.29,944.96l0.72,29.47c4.2,22.5,21.94,46.29,46.88,46.24l101.67,-0.19c60.17,-3.73,121.18,-38.15,158.73,-83.56c11.75,9.16,25.82,8.54,43.51,7.9c-50.92,67.91,-134.43,115.02,-217.69,114.74l-86.41,-0.29c-44.9,-2.27,-79.74,-39.53,-84.88,-82.9l-1.18,-31.2l38.63,-0.22Z"/>
          <path id="mic-outline-part-3" class="mic-outline" d="M1149.07,484.7l-7.88,36.54l-0.02,33.22l-38.69,0.18c-0.31,-23.92,1.74,-46.97,7.85,-69.94h38.73Z"/>
          <polygon id="mic-outline-part-4" class="mic-outline" points="1141.2 638.53 1141.13 708.46 1102.52 708.17 1102.48 638.73 1141.2 638.53"/>
          <polygon id="mic-outline-part-5" class="mic-outline" points="1510.64 708.5 1509.08 638.43 1547.4 638.79 1547.53 708.37 1510.64 708.5"/>
          <polygon id="mic-outline-part-6" class="mic-outline" points="1510.7 554.66 1508.96 484.64 1547.52 484.84 1547.57 554.57 1510.7 554.66"/>
          <path id="mic-outline-part-7" class="mic-outline" d="M1547.76,791.51c-1.82,23.14,-6.38,47.64,-13.53,70.36l-39.26,-0.27c8.28,-21.65,13.71,-45.76,14.54,-70.03l38.25,-0.06Z"/>
          <polygon id="mic-outline-part-8" class="mic-outline" points="1141.15 861.65 1102.72 861.52 1102.77 791.25 1141.07 791.27 1141.15 861.65"/>
        </g>
        <g id="right-blob">
          <path id="right-blob-outline" class="blob-outline" d="M2158.73,1495.04l-268.66,-266.89l-510.78,-0.26c-77.29,-0.04,-149.07,-34.22,-200.78,-89.77l116.62,-0.83c85.19,-5.08,163.25,-43.01,223.7,-102.25c71.71,-71.06,104.64,-157.24,109.53,-258.28l-0.43,-399.62c-0.04,-39.45,-8.19,-75.25,-20.45,-112.19l676.09,0.82c142.51,0.17,269.66,135.64,269.78,277.34l0.33,403.82c0.06,70.77,-28.66,135.93,-73.9,188c-51.16,56.23,-119.77,89.82,-195.97,93.22h-124.47s-0.59,266.89,-0.59,266.89Z"/>
          <path id="right-blob-background" class="right-blob-background" d="M1908.31,1191.31l-39.21,-0.32l-471.25,-0.35c-32.48,-0.02,-62.35,-3.21,-94.28,-13.95c37.95,-8.68,73.19,-16.13,108.92,-29.98c101.84,-39.47,186.46,-111.17,225.33,-214.88c16.71,-44.59,27.05,-90.48,27.09,-138.98l0.4,-425.76l-6.63,-63.8l407.99,0.1l206.32,0.08c130.9,0.05,241.03,113.8,241.31,237.59l0.91,395.86c0.27,115.36,-74.07,217.28,-185.92,246.26c-26.12,6.75,-51.87,7.46,-79.08,7.28l-130.16,0.41l-0.1,211.62l-211.62,-211.19Z"/>
          <g id="right-blob-text-lines-group">
            <path id="blob-text-lines" class="blob-text-lines" d="M2360.21,1061.44l-544.53,-0.54c-23.32,-0.02,-38.34,-22.96,-39.27,-43.05c-0.91,-19.52,13.7,-46.15,37.4,-46.15l545.51,-0.02c22.77,0,36.45,24.75,37.24,42.13c1.06,23.17,-12.39,41.13,-36.35,47.64Z"/>
            <path id="blob-text-lines-2" class="blob-text-lines" d="M2396.15,832.58c2.99,23,-13.05,50.37,-38.63,50.36l-543.93,-0.14c-22.87,0,-37.8,-25.81,-37.47,-44.37c0.38,-21.37,15.47,-44.5,39.76,-44.52l533.59,-0.42c23.92,-0.02,43.36,13.55,46.68,39.08Z"/>
            <path id="blob-text-lines-3" class="blob-text-lines" d="M2358.53,528.41l-544.75,0.04c-22.75,0,-37.77,-25.83,-37.67,-44.4c0.1,-20.88,15.8,-44.73,39.75,-44.75l535.68,-0.42c25.05,-0.02,43.25,18.57,45.13,42.22c1.51,18.99,-12.74,47.31,-38.13,47.31Z"/>
            <path id="blob-text-lines-4" class="blob-text-lines" d="M2357.95,705.87l-541.82,0.15c-23.08,0,-38.75,-22.44,-39.99,-42.48c-1.19,-19.28,14.27,-46.34,37.4,-46.34l544.02,-0.11c23.32,0,38.45,23.3,39.13,43c0.68,20.01,-13.72,45.78,-38.73,45.78Z"/>
          </g>
        </g>
      </g>
      <g id="left-blob-wrapper">
        <path id="left-blob-outline" class="blob-outline" d="M1470.99,187.13l-57.98,-0.46c-44.54,-35.58,-98.93,-51.13,-155.96,-51.19l-94.13,-0.11l-714.63,0.17l-60.17,-0.04c-49.76,-0.03,-96.82,10.78,-139,38.53c-67.34,44.31,-112.92,120.45,-112.89,202.78l0.16,414.11c0.02,47.89,20.93,90.84,46.1,129.61c45.32,62.26,114.82,101.55,192.27,101.85l155.53,0.6l0.12,211.39l69,-67.97l57.45,-56.58c3.67,-6.56,9.69,-10.2,14.85,-15.31l72.48,-71.83l287.85,0.52l10.61,37.45l-282.41,-0.15l-269.2,268l-0.05,-267.84l-120.41,-0.35c-147.05,-0.43,-273,-133.34,-273.06,-281.29l-0.16,-398.34c-0.04,-97.87,52.2,-188.74,133.89,-240.62c45.87,-29.13,96.84,-42.9,151.25,-42.84l898.2,0.94c72.13,0.08,140.62,37.48,190.26,88.96Z"/>
        <g id="left-blob">
          <path id="left-blob-background" class="left-blob-background" d="M1470.99,187.13l-104,1.17c-65.65,0.74,-127.29,22.06,-181.83,58.96c-95.04,64.29,-156.89,170.72,-160.17,287.29l-1.43,425.47l8.52,63.19l-1.41,4l-284.75,-0.55l-211,208.92c-3.14,2.67,-6.04,0.22,-8.49,-2.59l-0.12,-204.61l-1.35,-1.41l-150.23,-0.58c-126.73,0.12,-234.08,-107.44,-242.29,-231.87l-0.17,-421.58c3.24,-135.3,120.08,-246.09,255.84,-241.44l885.78,0.44c50.6,2.74,101.16,18.87,140.69,51.22l46.89,-0.12l9.53,4.08Z"/>
          <g id="left-blob-text-lines-group">
            <path id="blob-text-lines-5" class="blob-text-lines" d="M894.29,698.05c-7.24,8.39,-19.01,14.03,-30.85,14.03l-534.09,-0.11c-25.33,0,-42.98,-20.86,-43.62,-44.07c-0.62,-22.51,17.18,-46.14,43.01,-46.15l535.28,-0.19c18.82,0,32.36,13.42,38.35,27.09c7.4,16.9,4.5,34.82,-8.08,49.4Z"/>
            <path id="blob-text-lines-6" class="blob-text-lines" d="M867.34,535.16l-538.79,-0.24c-24.36,-0.01,-41.12,-20.37,-42.81,-40.97c-1.91,-23.34,12.41,-45.02,36.69,-48.55l40.26,-2.08h492.7c25.55,0.01,46.67,15.27,50.2,39.42c3.5,23.94,-11.45,47.51,-38.24,52.43Z"/>
            <path id="blob-text-lines-7" class="blob-text-lines" d="M871.05,356.97l-548.43,-0.72c-24.41,-0.03,-38.74,-28.26,-37.26,-47.34c1.94,-25.16,21.56,-42.34,47.15,-42.32l533.66,0.49c22.89,0.02,37.92,22.03,40.23,40.44c0.79,23.23,-11,42.59,-35.34,49.44Z"/>
            <path id="blob-text-lines-8" class="blob-text-lines" d="M867.12,888.54l-540.59,0.24c-24.48,0.01,-40.59,-23.61,-40.54,-44.65s16.02,-44.64,40.71,-44.64h539.57c22.87,0,39.47,22.89,39.92,42.76s-14.35,46.28,-39.07,46.29Z"/>
          </g>
        </g>
      </g>
    </g>
  </g>
  <g id="podtext-text">
    <path class="podtext-text-letter" d="M79.87,1812.25h95.68c27.61,0,61.65,1.28,89.9,29.54c29.54,30.18,32.75,69.35,32.75,102.75v12.84c0,25.04,-2.57,62.29,-27.61,91.19c-26.33,30.18,-61.01,35.32,-88.62,35.32h-37.89v177.88H79.87v-449.52ZM144.09,2026.1h34.68c12.2,0,29.54,-1.93,43.03,-16.7s12.2,-30.18,12.2,-46.24v-29.54c0,-15.41,0.64,-37.25,-17.34,-52.02c-14.77,-12.2,-32.75,-11.56,-50.09,-11.56h-22.48v156.05Z"/>
    <path class="podtext-text-letter" d="M481.23,1930.41c0,-34.04,2.57,-66.79,33.39,-95.68c19.27,-17.98,45.59,-28.9,78.99,-28.9s59.72,10.92,78.99,28.9c30.82,28.9,33.39,61.65,33.39,95.68v213.2c0,34.03,-2.57,66.79,-33.39,95.68c-19.26,17.98,-45.59,28.9,-78.99,28.9s-59.72,-10.92,-78.99,-28.9c-30.82,-28.9,-33.39,-61.65,-33.39,-95.68v-213.2ZM641.77,1920.78c0,-13.49,-1.28,-26.97,-13.49,-39.17c-7.06,-7.06,-18.62,-12.84,-34.68,-12.84s-27.61,5.78,-34.68,12.84c-12.2,12.2,-13.49,25.69,-13.49,39.17v232.46c0,13.49,1.28,26.97,13.49,39.17c7.06,7.06,18.62,12.84,34.68,12.84s27.61,-5.78,34.68,-12.84c12.2,-12.2,13.49,-25.69,13.49,-39.17v-232.46Z"/>
    <path class="podtext-text-letter" d="M994.96,1812.25c26.97,0,65.5,1.28,93.76,26.97c32.75,30.18,34.68,77.7,34.68,96.97v198.43c0,30.82,-3.21,63.57,-28.9,91.83c-28.26,30.82,-65.5,35.32,-90.55,35.32h-95.68v-449.52h86.69ZM972.49,2198.84h28.9c13.49,0,30.18,-1.93,43.03,-15.41c13.49,-14.77,14.77,-37.89,14.77,-52.66v-199.07c0,-12.84,-1.93,-28.9,-12.2,-41.74c-12.2,-14.77,-25.69,-14.77,-41.74,-14.77h-32.75v323.65Z"/>
    <path class="podtext-text-letter" d="M1501.64,1812.25v61.01h-79.63v388.51h-64.22v-388.51h-79.63v-61.01h223.47Z"/>
    <path class="podtext-text-letter" d="M1680.81,1812.25h190.72v61.01h-126.51v132.29h111.74v57.79h-111.74v137.42h128.43v61.01h-192.65v-449.52Z"/>
    <path class="podtext-text-letter" d="M2111.7,1812.25l51.37,141.28l52.02,-141.28h70.64l-88.62,211.92l97.61,237.6h-68.07l-63.58,-162.47l-59.08,162.47h-70.64l96.32,-237.6l-86.05,-211.92h68.07Z"/>
    <path class="podtext-text-letter" d="M2668.47,1812.25v61.01h-79.63v388.51h-64.22v-388.51h-79.63v-61.01h223.47Z"/>
  </g>
</svg>
