<svg xmlns="http://www.w3.org/2000/svg" viewBox="0 0 512 512">
  <style>
    .dark-outlines { fill: #121f4c; }
    .mic-outline, .blob-outline { fill: #fdfdfd; }
    .blob-text-lines { fill: #fdfdfd; }
    .left-blob-background { fill: #3d9ce0; }
    .right-blob-background { fill: #3a9be0; }
    .mic-inner { fill: #fcc847; }
    @media (prefers-color-scheme: dark) {
      .dark-outlines { fill: #fdfdfd; }
      .mic-outline, .blob-outline { fill: #121f4c; }
    }
  </style>
  <path class="dark-outlines" d="M360.4,345.22l-91.02,0.05c-14.58,0.46,-28.43,-3.52,-40.48,-11.48c-8.46,-5.65,-15.42,-12.85,-20.98,-21.47l-56.18,-0.03l-74.38,73.94l-0.01,-73.9l-11.04,-0.06c-20.05,-1.17,-38.49,-10.63,-50.92,-26.49C5.99,273.79,0.02,258.97,0.01,243.48L0,163.06C-0.01,126.72,29.84,94.4,66.82,93.04l182.45,0.03c22.41,1.41,42.77,13.67,54.75,32.85l140.35,0.07c11.23,0.01,21.45,3.49,31.3,8.59c21.15,12.19,35.74,34.49,36.27,59.37l0.08,82.79c0.03,35.94,-31.82,68.4,-69.1,68.56l-8.14,0.04l0.02,71.62l0.02,1.27c0.01,0.33,-0.17,0.69,-0.35,0.72c-0.16,0.03,-0.29,-0.21,-0.6,-0.52l-73.45,-73.22Z"/>
  <path class="mic-inner" d="M219.07,244.51l0.05,13.36l0.79,0.26l12.48,0.04c4.29,0.02,7.52,3.56,7.84,7.57c0.33,4.16,-2.69,8.55,-7.11,8.59l-13.19,0.14l-0.77,0.55c-0.53,7.01,1.99,14.02,9.76,15.08l20.33,-0.03c12.63,-1.71,22.21,-6.04,30.85,-15.67c0.14,-0.15,0.19,-0.4,0.23,-0.66c0.05,-0.27,0.04,-0.55,0.02,-0.84c-2.7,-2.11,-4.01,-5.4,-2.99,-8.92c0.85,-2.92,3.54,-5.71,7.04,-5.77l4.91,-0.09c0.26,-0.13,0.51,-0.28,0.73,-0.46c1.74,-1.46,2.6,-9.52,2.85,-12.13l0.07,-1.15l-6.75,0.18c-4.65,0.12,-8.51,-2.76,-9.11,-7.23c-0.58,-4.34,2.47,-8.75,7.09,-9.17l8.18,-0.08l0.77,-0.59c0.28,-2.79,0.08,-9.89,-0.28,-12.71c-0.03,-0.25,-0.49,-0.36,-0.79,-0.44l-8.07,-0.15c-4.03,-0.55,-6.79,-4.1,-6.94,-7.82c-0.16,-3.99,2.64,-7.8,6.79,-8.33l8.53,-0.13c0.76,-0.34,1,-1.12,0.73,-2.33c0.17,-3.08,0.02,-7.87,-0.27,-10.97c-0.02,-0.24,-0.49,-0.36,-0.8,-0.44l-7.79,-0.05c-4.69,-0.03,-7.72,-4.67,-7.14,-9.08c0.58,-4.44,4.36,-7.55,9.06,-7.17l5.86,-0.04l0.79,-0.54c0.9,-12.02,-0.7,-18,-14.02,-19.33c-9.75,-0.97,-22.81,0.21,-31.62,4.46c-5.88,2.84,-13.61,8.25,-17.15,13.76c-0.51,0.79,-0.73,1.5,0.37,1.61c4.79,-0.02,9.01,2.1,9.8,6.91c0.74,4.52,-2.51,9.4,-7.41,9.42l-11.36,0.05l-0.89,0.38c-1.14,3.49,-1.87,9.37,-1.45,12.95c0.03,0.22,0.48,0.31,0.78,0.35l12.92,0.07c4.38,0.03,7.36,3.92,7.46,8.06c0.1,3.95,-2.87,8.14,-7.18,8.19l-13.18,0.16c-0.35,0.08,-0.59,0.28,-0.79,0.57c-0.36,0.52,-0.11,11.17,-0.01,12.68c0.01,0.24,0.48,0.38,0.78,0.46l12.92,0.08c4.68,0.03,7.8,4.47,7.41,8.81c-0.41,4.54,-4.1,7.63,-8.79,7.56l-11.56,-0.2"/>
  <path class="mic-outline" d="M292.05,167.84l0.11,-7.96c0.1,-8.17,-7.07,-11.1,-14.98,-11.18l-5.06,-0.05l-4.36,0.08c-5.49,0.1,-10.53,0.64,-15.7,2.52c-8.23,3,-15.46,7.96,-20.89,14.79c-0.5,0.62,-0.88,0.98,-0.74,1.76l-9.73,0.03c9.38,-15.67,26.2,-25.93,44.65,-26.5l14.18,0.04c9.99,0.03,19.76,6.88,19.93,16.2l0.18,10.27l-7.58,0Z"/>
  <path class="mic-outline" d="M219.94,274.47l0.14,5.78c0.82,4.41,4.3,9.08,9.2,9.07l19.94,-0.04c11.8,-0.73,23.77,-7.48,31.13,-16.39c2.3,1.8,5.06,1.68,8.53,1.55c-9.99,13.32,-26.37,22.56,-42.7,22.51l-16.95,-0.06c-8.81,-0.45,-15.64,-7.75,-16.65,-16.26l-0.23,-6.12l7.58,-0.04Z"/>
  <path class="mic-outline" d="M221.46,184.19l-1.55,7.17l0,6.52l-7.59,0.04c-0.06,-4.69,0.34,-9.21,1.54,-13.72h7.6Z"/>
  <polygon class="mic-outline" points="219.92 214.37 219.91 228.08 212.33 228.03 212.32 214.4 219.92 214.37"/>
  <polygon class="mic-outline" points="292.38 228.09 292.08 214.35 299.59 214.42 299.62 228.06 292.38 228.09"/>
  <polygon class="mic-outline" points="292.4 197.91 292.05 184.18 299.62 184.22 299.63 197.9 292.4 197.91"/>
  <path class="mic-outline" d="M299.67,244.37c-0.36,4.54,-1.25,9.34,-2.65,13.8l-7.7,-0.05c1.62,-4.25,2.69,-8.98,2.85,-13.74l7.5,-0.01Z"/>
  <polygon class="mic-outline" points="219.91 258.13 212.37 258.1 212.38 244.32 219.89 244.32 219.91 258.13"/>
  <path class="blob-outline" d="M419.5,382.37l-52.7,-52.35l-100.19,-0.05c-15.16,-0.01,-29.24,-6.71,-39.38,-17.61l22.87,-0.16c16.71,-1,32.02,-8.44,43.88,-20.06c14.07,-13.94,20.52,-30.84,21.48,-50.66l-0.08,-78.38c-0.01,-7.74,-1.61,-14.76,-4.01,-22.01l132.61,0.16c27.95,0.03,52.89,26.61,52.92,54.4l0.06,79.21c0.01,13.88,-5.62,26.66,-14.5,36.88c-10.03,11.03,-23.49,17.62,-38.44,18.28h-24.41s-0.12,52.35,-0.12,52.35Z"/>
  <path class="right-blob-background" d="M370.39,322.79l-7.69,-0.06l-92.43,-0.07c-6.37,0,-12.23,-0.63,-18.49,-2.74c7.44,-1.7,14.36,-3.16,21.36,-5.88c19.98,-7.74,36.57,-21.81,44.2,-42.15c3.28,-8.75,5.31,-17.75,5.31,-27.26l0.08,-83.51l-1.3,-12.51l80.03,0.02l40.47,0.02c25.68,0.01,47.28,22.32,47.33,46.6l0.18,77.65c0.05,22.63,-14.53,42.62,-36.47,48.3c-5.12,1.32,-10.17,1.46,-15.51,1.43l-25.53,0.08l-0.02,41.51l-41.51,-41.42Z"/>
  <path class="blob-text-lines" d="M459.02,297.32l-106.81,-0.11c-4.57,0,-7.52,-4.5,-7.7,-8.44c-0.18,-3.83,2.69,-9.05,7.34,-9.05l107,0c4.47,0,7.15,4.85,7.3,8.26c0.21,4.54,-2.43,8.07,-7.13,9.34Z"/>
  <path class="blob-text-lines" d="M466.07,252.43c0.59,4.51,-2.56,9.88,-7.58,9.88l-106.69,-0.03c-4.49,0,-7.41,-5.06,-7.35,-8.7c0.07,-4.19,3.03,-8.73,7.8,-8.73l104.66,-0.08c4.69,0,8.5,2.66,9.16,7.67Z"/>
  <path class="blob-text-lines" d="M458.7,192.77l-106.85,0.01c-4.46,0,-7.41,-5.07,-7.39,-8.71c0.02,-4.1,3.1,-8.77,7.8,-8.78l105.07,-0.08c4.91,0,8.48,3.64,8.85,8.28c0.3,3.72,-2.5,9.28,-7.48,9.28Z"/>
  <path class="blob-text-lines" d="M458.58,227.57l-106.28,0.03c-4.53,0,-7.6,-4.4,-7.84,-8.33c-0.23,-3.78,2.8,-9.09,7.34,-9.09l106.71,-0.02c4.57,0,7.54,4.57,7.68,8.43c0.13,3.92,-2.69,8.98,-7.6,8.98Z"/>
  <path class="blob-outline" d="M284.61,125.82l-11.37,-0.09c-8.74,-6.98,-19.4,-10.03,-30.59,-10.04l-18.46,-0.02l-140.17,0.03l-11.8,-0.01c-9.76,-0.01,-18.99,2.11,-27.26,7.56c-13.21,8.69,-22.15,23.63,-22.14,39.77l0.03,81.23c0,9.39,4.11,17.82,9.04,25.42c8.89,12.21,22.52,19.92,37.71,19.98l30.51,0.12l0.02,41.46l13.53,-13.33l11.27,-11.1c0.72,-1.29,1.9,-2,2.91,-3l14.22,-14.09l56.46,0.1l2.08,7.35l-55.39,-0.03l-52.8,52.57l-0.01,-52.54l-23.62,-0.07c-28.84,-0.08,-53.55,-26.15,-53.56,-55.17l-0.03,-78.13c-0.01,-19.2,10.24,-37.02,26.26,-47.2c9,-5.71,18.99,-8.41,29.67,-8.4l176.18,0.18c14.15,0.02,27.58,7.35,37.32,17.45Z"/>
  <path class="left-blob-background" d="M284.61,125.82l-20.4,0.23c-12.88,0.15,-24.97,4.33,-35.67,11.56c-18.64,12.61,-30.77,33.49,-31.42,56.35l-0.28,83.45l1.67,12.39l-0.28,0.78l-55.85,-0.11l-41.39,40.98c-0.62,0.52,-1.18,0.04,-1.67,-0.51l-0.02,-40.13l-0.26,-0.28l-29.47,-0.11c-24.86,0.02,-45.91,-21.07,-47.52,-45.48l-0.03,-82.69c0.64,-26.54,23.55,-48.27,50.18,-47.36l173.74,0.09c9.93,0.54,19.84,3.7,27.6,10.05l9.2,-0.02l1.87,0.8Z"/>
  <path class="blob-text-lines" d="M171.49,226.04c-1.42,1.65,-3.73,2.75,-6.05,2.75l-104.76,-0.02c-4.97,0,-8.43,-4.09,-8.56,-8.64c-0.12,-4.42,3.37,-9.05,8.44,-9.05l104.99,-0.04c3.69,0,6.35,2.63,7.52,5.31c1.45,3.31,0.88,6.83,-1.58,9.69Z"/>
  <path class="blob-text-lines" d="M166.2,194.09l-105.68,-0.05c-4.78,0,-8.07,-4,-8.4,-8.04c-0.37,-4.58,2.43,-8.83,7.2,-9.52l7.9,-0.41h96.64c5.01,0,9.15,3,9.85,7.73c0.69,4.7,-2.25,9.32,-7.5,10.28Z"/>
  <path class="blob-text-lines" d="M166.93,159.14l-107.57,-0.14c-4.79,-0.01,-7.6,-5.54,-7.31,-9.29c0.38,-4.94,4.23,-8.3,9.25,-8.3l104.68,0.1c4.49,0,7.44,4.32,7.89,7.93c0.15,4.56,-2.16,8.35,-6.93,9.7Z"/>
  <path class="blob-text-lines" d="M166.16,263.4l-106.03,0.05c-4.8,0,-7.96,-4.63,-7.95,-8.76s3.14,-8.76,7.99,-8.76h105.83c4.49,0,7.74,4.49,7.83,8.39s-2.81,9.08,-7.66,9.08Z"/>
</svg>
